<?xml version="1.0" encoding="iso-8859-1"?>
<!-- Generator: Adobe Illustrator 12.0.0, SVG Export Plug-In . SVG Version: 6.00 Build 51448)  -->
<!DOCTYPE svg PUBLIC "-//W3C//DTD SVG 1.1//EN" "http://www.w3.org/Graphics/SVG/1.1/DTD/svg11.dtd" [
	<!ENTITY ns_svg "http://www.w3.org/2000/svg">
	<!ENTITY ns_xlink "http://www.w3.org/1999/xlink">
]>
<svg  version="1.1" id="&#x56FE;&#x5C42;_2" xmlns="&ns_svg;" xmlns:xlink="&ns_xlink;" width="242.194" height="248.077"
	 viewBox="0 0 242.194 248.077" style="overflow:visible;enable-background:new 0 0 242.194 248.077;" xml:space="preserve">
<linearGradient id="XMLID_19_" gradientUnits="userSpaceOnUse" x1="-33.0083" y1="-87.5005" x2="200.6053" y2="233.5848">
	<stop  offset="0" style="stop-color:#FFFFFF"/>
	<stop  offset="1" style="stop-color:#C2C2C2"/>
</linearGradient>
<path style="fill:url(#XMLID_19_);stroke:#8C8C8C;stroke-width:8;stroke-linecap:round;stroke-linejoin:round;" d="M29.788,4
	c0,0-76.223,142.62,38.496,240.077c0,0,146.285-3.961,163.993-168.768c0,0-74.682-22.977-93.931-69.725
	C138.345,5.584,77.522,34.108,29.788,4z"/>
<linearGradient id="XMLID_20_" gradientUnits="userSpaceOnUse" x1="-30.8535" y1="-86.8193" x2="198.2554" y2="228.0746">
	<stop  offset="0" style="stop-color:#FFFFFF"/>
	<stop  offset="1" style="stop-color:#C2C2C2"/>
</linearGradient>
<path style="fill:url(#XMLID_20_);stroke:#8C8C8C;stroke-width:8;stroke-linecap:round;stroke-linejoin:round;" d="M28.817,4.309
	c0,0-76.222,138.585,38.497,233.285c0,0,146.285-3.85,163.992-163.994c0,0-74.681-22.327-93.93-67.752
	C137.375,5.849,76.552,33.565,28.817,4.309z"/>
<linearGradient id="XMLID_21_" gradientUnits="userSpaceOnUse" x1="53.9487" y1="214.8618" x2="117.0149" y2="126.5692">
	<stop  offset="0" style="stop-color:#FFFFFF"/>
	<stop  offset="1" style="stop-color:#969696"/>
</linearGradient>
<path style="fill:url(#XMLID_21_);" d="M27.639,141.943c0,0,7.02,53.622,44.683,77.393c0,0,21.065,12.756,87.094-42.377
	L27.639,141.943z"/>
<linearGradient id="XMLID_22_" gradientUnits="userSpaceOnUse" x1="45.0747" y1="5.6455" x2="174.9138" y2="210.3916">
	<stop  offset="0" style="stop-color:#FFADC6"/>
	<stop  offset="1" style="stop-color:#CC5084"/>
</linearGradient>
<path style="fill:url(#XMLID_22_);" d="M42.251,33.608c0,0-58.848,106.463,34.1,183.194c0,0,105.345-12.418,132.873-128.99
	c0,0-64.39-21.974-79.987-58.777C129.236,29.035,87.455,50.784,42.251,33.608z"/>
<linearGradient id="XMLID_23_" gradientUnits="userSpaceOnUse" x1="72.8364" y1="69.7461" x2="187.3243" y2="201.6985">
	<stop  offset="0" style="stop-color:#FFD1E0"/>
	<stop  offset="1" style="stop-color:#CC5084"/>
</linearGradient>
<path style="fill:url(#XMLID_23_);" d="M209.223,83.931c0,0-64.39-18.093-79.987-54.896c0,0-48.68,82.872-52.886,187.767
	C76.35,216.802,186.062,204.87,209.223,83.931z"/>
<radialGradient id="XMLID_24_" cx="33.1387" cy="23.9883" r="7.2767" gradientUnits="userSpaceOnUse">
	<stop  offset="0" style="stop-color:#FFFFFF"/>
	<stop  offset="0.6348" style="stop-color:#B7B0AD"/>
	<stop  offset="1" style="stop-color:#454545"/>
</radialGradient>
<circle style="fill:url(#XMLID_24_);" cx="34.285" cy="26.104" r="5.513"/>
<radialGradient id="XMLID_25_" cx="14.063" cy="98.3643" r="7.2767" gradientUnits="userSpaceOnUse">
	<stop  offset="0" style="stop-color:#FFFFFF"/>
	<stop  offset="0.6348" style="stop-color:#B7B0AD"/>
	<stop  offset="1" style="stop-color:#454545"/>
</radialGradient>
<circle style="fill:url(#XMLID_25_);" cx="15.209" cy="100.48" r="5.513"/>
<radialGradient id="XMLID_26_" cx="32.6079" cy="177.8579" r="7.2762" gradientUnits="userSpaceOnUse">
	<stop  offset="0" style="stop-color:#FFFFFF"/>
	<stop  offset="0.6348" style="stop-color:#B7B0AD"/>
	<stop  offset="1" style="stop-color:#454545"/>
</radialGradient>
<circle style="fill:url(#XMLID_26_);" cx="33.754" cy="179.974" r="5.512"/>
<radialGradient id="XMLID_27_" cx="71.1753" cy="222.7319" r="7.2762" gradientUnits="userSpaceOnUse">
	<stop  offset="0" style="stop-color:#FFFFFF"/>
	<stop  offset="0.6348" style="stop-color:#B7B0AD"/>
	<stop  offset="1" style="stop-color:#454545"/>
</radialGradient>
<circle style="fill:url(#XMLID_27_);" cx="72.322" cy="224.848" r="5.512"/>
<radialGradient id="XMLID_28_" cx="124.8472" cy="208.0024" r="7.2764" gradientUnits="userSpaceOnUse">
	<stop  offset="0" style="stop-color:#FFFFFF"/>
	<stop  offset="0.6348" style="stop-color:#B7B0AD"/>
	<stop  offset="1" style="stop-color:#454545"/>
</radialGradient>
<circle style="fill:url(#XMLID_28_);" cx="125.994" cy="210.119" r="5.512"/>
<radialGradient id="XMLID_29_" cx="186.9438" cy="157.064" r="7.2759" gradientUnits="userSpaceOnUse">
	<stop  offset="0" style="stop-color:#FFFFFF"/>
	<stop  offset="0.6348" style="stop-color:#B7B0AD"/>
	<stop  offset="1" style="stop-color:#454545"/>
</radialGradient>
<circle style="fill:url(#XMLID_29_);" cx="188.09" cy="159.18" r="5.512"/>
<radialGradient id="XMLID_30_" cx="215.0806" cy="79.9287" r="7.2767" gradientUnits="userSpaceOnUse">
	<stop  offset="0" style="stop-color:#FFFFFF"/>
	<stop  offset="0.6348" style="stop-color:#B7B0AD"/>
	<stop  offset="1" style="stop-color:#454545"/>
</radialGradient>
<circle style="fill:url(#XMLID_30_);" cx="216.227" cy="82.046" r="5.513"/>
<path style="fill:#FFFFFF;" d="M31.395,9.762c0,0,39.78,26.197,103.816,0.485l-1.954,7.268
	C133.257,17.516,83.788,39.355,31.395,9.762z"/>
<path style="opacity:0.57;fill:#FFFFFF;" d="M133.257,17.516c0,0,22.329,46.228,94.128,59.018c0,0-67.918-19.714-92.174-66.286
	L133.257,17.516z"/>
<radialGradient id="XMLID_31_" cx="129.8755" cy="18.4951" r="7.2762" gradientUnits="userSpaceOnUse">
	<stop  offset="0" style="stop-color:#FFFFFF"/>
	<stop  offset="0.6348" style="stop-color:#B7B0AD"/>
	<stop  offset="1" style="stop-color:#454545"/>
</radialGradient>
<circle style="fill:url(#XMLID_31_);" cx="131.021" cy="20.611" r="5.512"/>
<g>
	<g style="opacity:0.14;">
		<path d="M190.588,167.756l-31.75,30.512c-0.936,0.898-1.377,2.195-1.185,3.478c0.193,1.283,0.996,2.393,2.153,2.978
			c15.467,7.806,23.676,15.707,25.099,24.154c0.248,1.477,1.301,2.69,2.727,3.146c1.427,0.455,2.987,0.076,4.046-0.982
			l31.149-31.149c0.924-0.923,1.338-2.239,1.11-3.525s-1.068-2.38-2.253-2.931c-7.928-3.683-13.853-11.172-19.584-18.414
			c-1.859-2.351-3.782-4.78-5.726-7.011c-0.72-0.824-1.746-1.319-2.839-1.367C192.443,166.596,191.377,166.998,190.588,167.756z"/>
		<path d="M193.358,162.641c-2.062,0-4.049,0.797-5.541,2.231l-31.75,30.512c-1.871,1.797-2.754,4.39-2.368,6.956
			c0.385,2.564,1.99,4.784,4.306,5.954c6.611,3.336,11.673,6.579,15.474,9.918c4.341,3.81,6.858,7.621,7.482,11.329
			c0.497,2.953,2.603,5.382,5.454,6.292c0.8,0.256,1.621,0.381,2.435,0.381c2.09,0,4.134-0.82,5.658-2.344l31.148-31.149
			c1.847-1.848,2.676-4.48,2.22-7.052c-0.455-2.572-2.137-4.761-4.506-5.86c-7.064-3.282-12.69-10.394-18.132-17.27
			c-1.888-2.386-3.841-4.854-5.848-7.155c-1.438-1.65-3.49-2.64-5.678-2.735C193.594,162.644,193.476,162.641,193.358,162.641
			L193.358,162.641z M161.61,201.152l31.75-30.511c7.853,9.008,15.082,21.054,26.639,26.423l0,0l0,0l-31.148,31.15
			C186.758,215.789,173.105,206.954,161.61,201.152L161.61,201.152L161.61,201.152z"/>
		<polygon style="opacity:0.61;" points="194.492,221.888 203.899,212.479 183.399,191.979 173.935,201.443 		"/>
		<path d="M64.773,51.641c-5.521-0.033-10.708,2.094-14.614,5.995c-3.919,3.914-6.055,9.121-6.015,14.663l0.314,42.356
			c0.077,10.54,6.825,23.636,15.363,29.815l68.185,48.8c8.997,6.514,22.733,5.42,30.603-2.451l23.521-23.519
			c7.875-7.875,8.942-21.6,2.378-30.596l-0.065-0.089l-57.472-70.234l0.136,0.175c-6.208-8.507-19.322-15.242-29.854-15.333
			C97.251,51.224,64.837,51.64,64.773,51.641z"/>
		<path d="M97.285,47.225h-0.086l-0.086,0.001l-32.346,0.416h-0.12c-6.579,0-12.755,2.571-17.39,7.24
			c-4.635,4.669-7.161,10.865-7.113,17.447l0.314,42.356c0.042,5.691,1.805,12.204,4.966,18.339
			c3.16,6.134,7.44,11.35,12.051,14.688l0.018,0.012l0.017,0.013l68.167,48.787c-0.001-0.001-0.002-0.001-0.003-0.002
			c4.492,3.241,10.185,5.026,16.035,5.026c7.517,0,14.706-2.881,19.727-7.901l23.52-23.517c4.504-4.505,7.271-10.682,7.792-17.395
			c0.522-6.714-1.257-13.244-5.011-18.388l-0.13-0.179l-0.141-0.172l-57.271-69.987c-3.355-4.52-8.521-8.712-14.576-11.822
			C109.482,49.037,102.97,47.274,97.285,47.225L97.285,47.225z M64.689,47.643c0.025-0.001,0.051-0.001,0.076-0.001L64.689,47.643
			L64.689,47.643z M48.144,72.164c-0.009-9.126,7.382-16.521,16.503-16.521c0.048,0,0.096,0,0.145,0l32.424-0.417
			c9.225,0.079,21.22,6.239,26.657,13.69l57.402,70.149c2.399,3.289,3.567,7.354,3.562,11.43
			c-0.007,5.159-1.893,10.335-5.536,13.979l-23.522,23.518c-3.662,3.663-8.876,5.558-14.068,5.558c-4.057,0-8.1-1.157-11.377-3.53
			l-68.167-48.787c-7.472-5.408-13.641-17.381-13.708-26.605l-0.314-42.355C48.144,72.235,48.144,72.199,48.144,72.164
			L48.144,72.164z"/>
		<path d="M64.773,51.641c-5.521-0.033-10.708,2.094-14.614,5.995c-3.919,3.914-6.055,9.121-6.015,14.663l0.314,42.356
			c0.077,10.54,6.825,23.636,15.363,29.815l68.185,48.8c8.997,6.514,22.733,5.42,30.603-2.451l23.521-23.519
			c7.875-7.875,8.942-21.6,2.378-30.596l-0.065-0.089l-57.472-70.234l0.136,0.175c-6.208-8.507-19.322-15.242-29.854-15.333
			C97.251,51.224,64.837,51.64,64.773,51.641z"/>
		<path d="M97.285,47.225h-0.086l-0.086,0.001l-32.346,0.416h-0.12c-6.579,0-12.755,2.571-17.39,7.24
			c-4.635,4.669-7.161,10.865-7.113,17.447l0.314,42.356c0.042,5.691,1.805,12.204,4.966,18.339
			c3.16,6.134,7.44,11.35,12.051,14.688l0.018,0.012l0.017,0.013l68.167,48.787c-0.001-0.001-0.002-0.001-0.003-0.002
			c4.492,3.241,10.185,5.026,16.035,5.026c7.517,0,14.706-2.881,19.727-7.901l23.52-23.517c4.504-4.505,7.271-10.682,7.792-17.395
			c0.522-6.714-1.257-13.244-5.011-18.388l-0.13-0.179l-0.141-0.172l-57.271-69.987c-3.355-4.52-8.521-8.712-14.576-11.822
			C109.482,49.037,102.97,47.274,97.285,47.225L97.285,47.225z M64.689,47.643c0.025-0.001,0.051-0.001,0.076-0.001L64.689,47.643
			L64.689,47.643z M48.144,72.164c-0.009-9.126,7.382-16.521,16.503-16.521c0.048,0,0.096,0,0.145,0l32.424-0.417
			c9.225,0.079,21.22,6.239,26.657,13.69l57.402,70.149c2.399,3.289,3.567,7.354,3.562,11.43
			c-0.007,5.159-1.893,10.335-5.536,13.979l-23.522,23.518c-3.662,3.663-8.876,5.558-14.068,5.558c-4.057,0-8.1-1.157-11.377-3.53
			l-68.167-48.787c-7.472-5.408-13.641-17.381-13.708-26.605l-0.314-42.355C48.144,72.235,48.144,72.199,48.144,72.164
			L48.144,72.164z"/>
		<path d="M51.924,61.635c3.054-3.694,7.689-6.036,12.869-5.994l32.424-0.417c9.224,0.079,21.219,6.239,26.657,13.69l57.401,70.148
			c5.438,7.451,4.549,18.886-1.975,25.409l-9.943,9.943L51.924,61.635z"/>
		<path d="M187.424,141.109l-50.267,50.268c-3.996,3.996-8.243,11.182-8.243,16.629c0,6.018,6.149,10.73,14,10.73h1.471
			c6.536,0,15.277-3.621,19.899-8.243l44.019-44.022c4.642-4.641,8.176-13.353,8.046-19.832c-0.151-7.594-5.36-13.772-11.61-13.772
			C199.567,132.866,192.124,136.41,187.424,141.109z"/>
		<path d="M204.738,128.866c-7.043,0-15.464,4.736-20.143,9.415l-50.268,50.268c-2.455,2.456-4.748,5.645-6.457,8.979
			c-1.349,2.633-2.957,6.589-2.957,10.479c0,8.26,7.907,14.729,18,14.729h1.472c7.591,0,17.362-4.048,22.729-9.415l44.019-44.021
			c2.619-2.621,4.995-6.362,6.69-10.535c1.702-4.189,2.599-8.524,2.525-12.205c0-0.001,0-0.001,0-0.002
			c-0.087-4.323-1.502-8.475-3.984-11.688C213.417,131.054,209.179,128.866,204.738,128.866L204.738,128.866z M132.914,208.006
			c0-3.701,3.183-9.911,7.071-13.802l50.267-50.267c3.891-3.89,10.408-7.072,14.486-7.072c4.079,0,7.503,4.435,7.612,9.854
			c0.001,0.084,0.002,0.17,0.003,0.255c0.008,5.401-3.05,12.84-6.878,16.669l-44.02,44.021c-3.889,3.891-11.57,7.071-17.07,7.071
			h-1.472C137.414,214.736,132.914,211.708,132.914,208.006L132.914,208.006L132.914,208.006z"/>
		<path d="M153.833,158.994L64.792,55.641c0,0-9.965,0.783-12.869,5.994L153.833,158.994z"/>
		<path style="opacity:0.68;" d="M76.37,85.299c0,0,23.18,31.767,6.833,70.987l28.482,20.384c0,0,8.978-27.794-9.601-67.115
			L76.37,85.299z"/>
		<path style="opacity:0.68;" d="M102.084,109.555l56.284,56.282l-24.119,24.18l-22.563-13.347
			C111.685,176.67,116.698,144.913,102.084,109.555z"/>
		<path style="opacity:0.68;" d="M177.062,148.728c0,0-51.535-78.493-66.6-84.043c-15.064-5.55-36.494,1.605-36.494,1.605
			l-9.175-10.649h36.64c0,0,11.987,0.498,30.569,23.207c18.582,22.709,51.244,63.696,51.244,63.696L177.062,148.728z"/>
		<path d="M206.677,145.761l-64.448,64.448l0,0c-2.354,2.352-6.166,2.352-8.519,0c-2.353-2.353-0.746-6.969,1.606-9.322v-0.802
			l57.221-58.827h0.804c2.352-2.352,10.983-6.368,13.336-4.016C209.029,139.595,209.029,143.409,206.677,145.761L206.677,145.761z"
			/>
		<path d="M215.531,200.392l-23.423,23.424c-3.062,3.062-8.243,9.418-8.243,13.824c0,4.443,4.507,7.924,10.261,7.924
			c5.144,0,12.165-4.247,16.161-8.243l19.778-19.78c4.112-4.112,8.225-10.834,8.128-15.725c-0.108-5.421-3.815-9.667-8.438-9.667
			C225.023,192.149,218.381,197.541,215.531,200.392z"/>
		<path d="M229.753,188.149c-2.734,0-5.793,1.073-9.349,3.28c-2.666,1.653-5.401,3.833-7.704,6.136l-23.422,23.423
			c-2.271,2.272-4.427,4.927-6.066,7.477c-2.284,3.552-3.349,6.468-3.349,9.177c0,3.843,2.038,7.324,5.592,9.55
			c2.442,1.53,5.521,2.373,8.669,2.373c6.579,0,14.456-4.88,18.99-9.414l19.778-19.78c2.41-2.411,4.66-5.437,6.335-8.522
			c2.025-3.732,3.022-7.134,2.963-10.11c-0.064-3.231-1.136-6.354-3.018-8.79C236.817,189.898,233.385,188.149,229.753,188.149
			L229.753,188.149z M187.864,237.641c0-2.16,3.182-7.107,7.072-10.996l23.423-23.424c3.889-3.891,9.017-7.072,11.395-7.072
			c2.379,0,4.376,2.586,4.439,5.747c0.001,0.037,0.001,0.074,0.001,0.112c-0.012,3.183-3.113,8.86-6.958,12.705l-19.778,19.779
			c-3.89,3.891-9.889,7.071-13.333,7.071C190.682,241.564,187.864,239.799,187.864,237.641L187.864,237.641L187.864,237.641z"/>
		<path d="M230.885,201.336l-37.588,37.589l0,0c-1.372,1.371-3.595,1.371-4.968,0c-1.371-1.373-0.435-4.065,0.938-5.438v-0.467
			l33.372-34.309h0.468c1.372-1.372,6.406-3.714,7.778-2.342C232.256,197.742,232.256,199.966,230.885,201.336L230.885,201.336z"/>
		<ellipse style="stroke:#000000;stroke-width:8;" cx="172.314" cy="177.821" rx="19.872" ry="20.013"/>
		<ellipse cx="173.394" cy="176.583" rx="11.262" ry="12.066"/>
		<ellipse cx="174.443" cy="174.161" rx="5.987" ry="6.848"/>
	</g>
	<g>
		<g>
			<g>
				<path style="fill:#D59758;" d="M190.588,157.756l-31.75,30.512c-0.936,0.898-1.377,2.195-1.185,3.478
					c0.193,1.283,0.996,2.393,2.153,2.978c15.467,7.806,23.676,15.707,25.099,24.154c0.248,1.477,1.301,2.69,2.727,3.146
					c1.427,0.455,2.987,0.076,4.046-0.982l31.149-31.149c0.924-0.923,1.338-2.239,1.11-3.525s-1.068-2.38-2.253-2.931
					c-7.928-3.683-13.853-11.172-19.584-18.414c-1.859-2.351-3.782-4.78-5.726-7.011c-0.72-0.824-1.746-1.319-2.839-1.367
					C192.443,156.596,191.377,156.998,190.588,157.756z"/>
				<path style="fill:#D59758;" d="M193.358,152.641c-2.062,0-4.049,0.797-5.541,2.231l-31.75,30.512
					c-1.871,1.797-2.754,4.39-2.368,6.956c0.385,2.564,1.99,4.784,4.306,5.954c6.611,3.336,11.673,6.579,15.474,9.918
					c4.341,3.81,6.858,7.621,7.482,11.329c0.497,2.953,2.603,5.382,5.454,6.292c0.8,0.256,1.621,0.381,2.435,0.381
					c2.09,0,4.134-0.82,5.658-2.344l31.148-31.149c1.847-1.848,2.676-4.48,2.22-7.052c-0.455-2.572-2.137-4.761-4.506-5.86
					c-7.064-3.282-12.69-10.394-18.132-17.27c-1.888-2.386-3.841-4.854-5.848-7.155c-1.438-1.65-3.49-2.64-5.678-2.735
					C193.594,152.644,193.476,152.641,193.358,152.641L193.358,152.641z M161.61,191.152l31.75-30.511
					c7.853,9.008,15.082,21.054,26.639,26.423l0,0l0,0l-31.148,31.15C186.758,205.789,173.105,196.954,161.61,191.152
					L161.61,191.152L161.61,191.152z"/>
			</g>
			<polygon style="opacity:0.61;fill:#8B5C29;" points="194.492,211.888 203.899,202.479 183.399,181.979 173.935,191.443 			"/>
			<g>
				<g>
					
						<radialGradient id="XMLID_32_" cx="126.7925" cy="126.7749" r="139.2561" gradientTransform="matrix(-1 0 0 1 122.2891 0)" gradientUnits="userSpaceOnUse">
						<stop  offset="0" style="stop-color:#FFFFFF"/>
						<stop  offset="0.6404" style="stop-color:#F5F5F5"/>
						<stop  offset="1" style="stop-color:#B5B5B5"/>
					</radialGradient>
					<path style="fill:url(#XMLID_32_);" d="M64.773,41.641c-5.521-0.033-10.708,2.094-14.614,5.995
						c-3.919,3.914-6.055,9.121-6.015,14.663l0.314,42.356c0.077,10.54,6.825,23.636,15.363,29.815l68.185,48.8
						c8.997,6.514,22.733,5.42,30.603-2.451l23.521-23.519c7.875-7.875,8.942-21.6,2.378-30.596l-0.065-0.089l-57.472-70.234
						l0.136,0.175c-6.208-8.507-19.322-15.242-29.854-15.333C97.251,41.224,64.837,41.64,64.773,41.641z"/>
					<path style="fill:#666666;" d="M97.285,37.225h-0.086l-0.086,0.001l-32.346,0.416h-0.12c-6.579,0-12.755,2.571-17.39,7.24
						c-4.635,4.669-7.161,10.865-7.113,17.447l0.314,42.356c0.042,5.691,1.805,12.204,4.966,18.339
						c3.16,6.134,7.44,11.35,12.051,14.688l0.018,0.012l0.017,0.013l68.167,48.787c-0.001-0.001-0.002-0.001-0.003-0.002
						c4.492,3.241,10.185,5.026,16.035,5.026c7.517,0,14.706-2.881,19.727-7.901l23.52-23.517
						c4.504-4.505,7.271-10.682,7.792-17.395c0.522-6.714-1.257-13.244-5.011-18.388l-0.13-0.179l-0.141-0.171l-57.271-69.987
						c-3.355-4.52-8.521-8.712-14.576-11.822C109.482,39.037,102.97,37.274,97.285,37.225L97.285,37.225z M64.689,37.643
						c0.025-0.001,0.051-0.001,0.076-0.001L64.689,37.643L64.689,37.643z M48.144,62.164c-0.009-9.126,7.382-16.521,16.503-16.521
						c0.048,0,0.096,0,0.145,0l32.424-0.417c9.225,0.079,21.22,6.239,26.657,13.69l57.402,70.149
						c2.399,3.289,3.567,7.354,3.562,11.43c-0.007,5.159-1.893,10.335-5.536,13.979l-23.522,23.518
						c-3.662,3.663-8.876,5.558-14.068,5.558c-4.057,0-8.1-1.157-11.377-3.53l-68.167-48.787
						c-7.472-5.408-13.641-17.381-13.708-26.605l-0.314-42.355C48.144,62.235,48.144,62.199,48.144,62.164L48.144,62.164z"/>
				</g>
				<g>
					<path style="fill:url(#XMLID_32_);" d="M64.773,41.641c-5.521-0.033-10.708,2.094-14.614,5.995
						c-3.919,3.914-6.055,9.121-6.015,14.663l0.314,42.356c0.077,10.54,6.825,23.636,15.363,29.815l68.185,48.8
						c8.997,6.514,22.733,5.42,30.603-2.451l23.521-23.519c7.875-7.875,8.942-21.6,2.378-30.596l-0.065-0.089l-57.472-70.234
						l0.136,0.175c-6.208-8.507-19.322-15.242-29.854-15.333C97.251,41.224,64.837,41.64,64.773,41.641z"/>
					<path style="fill:#666666;" d="M97.285,37.225h-0.086l-0.086,0.001l-32.346,0.416h-0.12c-6.579,0-12.755,2.571-17.39,7.24
						c-4.635,4.669-7.161,10.865-7.113,17.447l0.314,42.356c0.042,5.691,1.805,12.204,4.966,18.339
						c3.16,6.134,7.44,11.35,12.051,14.688l0.018,0.012l0.017,0.013l68.167,48.787c-0.001-0.001-0.002-0.001-0.003-0.002
						c4.492,3.241,10.185,5.026,16.035,5.026c7.517,0,14.706-2.881,19.727-7.901l23.52-23.517
						c4.504-4.505,7.271-10.682,7.792-17.395c0.522-6.714-1.257-13.244-5.011-18.388l-0.13-0.179l-0.141-0.171l-57.271-69.987
						c-3.355-4.52-8.521-8.712-14.576-11.822C109.482,39.037,102.97,37.274,97.285,37.225L97.285,37.225z M64.689,37.643
						c0.025-0.001,0.051-0.001,0.076-0.001L64.689,37.643L64.689,37.643z M48.144,62.164c-0.009-9.126,7.382-16.521,16.503-16.521
						c0.048,0,0.096,0,0.145,0l32.424-0.417c9.225,0.079,21.22,6.239,26.657,13.69l57.402,70.149
						c2.399,3.289,3.567,7.354,3.562,11.43c-0.007,5.159-1.893,10.335-5.536,13.979l-23.522,23.518
						c-3.662,3.663-8.876,5.558-14.068,5.558c-4.057,0-8.1-1.157-11.377-3.53l-68.167-48.787
						c-7.472-5.408-13.641-17.381-13.708-26.605l-0.314-42.355C48.144,62.235,48.144,62.199,48.144,62.164L48.144,62.164z"/>
				</g>
			</g>
			
				<linearGradient id="XMLID_34_" gradientUnits="userSpaceOnUse" x1="15.7881" y1="110.5796" x2="-42.5221" y2="69.5465" gradientTransform="matrix(-1 0 0 1 122.2891 0)">
				<stop  offset="0" style="stop-color:#FFFFFF"/>
				<stop  offset="1" style="stop-color:#B0B0B0"/>
			</linearGradient>
			<path style="fill:url(#XMLID_34_);" d="M51.924,51.635c3.054-3.694,7.689-6.036,12.869-5.994l32.424-0.417
				c9.224,0.079,21.219,6.239,26.657,13.69l57.401,70.148c5.438,7.451,4.549,18.886-1.975,25.409l-9.943,9.943L51.924,51.635z"/>
			<g>
				
					<linearGradient id="XMLID_35_" gradientUnits="userSpaceOnUse" x1="-58.7021" y1="160.6646" x2="-18.9274" y2="200.4393" gradientTransform="matrix(-1 0 0 1 122.2891 0)">
					<stop  offset="0" style="stop-color:#FFFFA6"/>
					<stop  offset="1" style="stop-color:#FFC552"/>
				</linearGradient>
				<path style="fill:url(#XMLID_35_);" d="M187.424,131.109l-50.267,50.268c-3.996,3.996-8.243,11.182-8.243,16.629
					c0,6.018,6.149,10.73,14,10.73h1.471c6.536,0,15.277-3.621,19.899-8.243l44.019-44.022c4.642-4.641,8.176-13.353,8.046-19.832
					c-0.151-7.594-5.36-13.772-11.61-13.772C199.567,122.866,192.124,126.41,187.424,131.109z"/>
				<path style="fill:#D59758;" d="M204.738,118.866c-7.043,0-15.464,4.736-20.143,9.415l-50.268,50.268
					c-2.455,2.456-4.748,5.645-6.457,8.979c-1.349,2.633-2.957,6.589-2.957,10.479c0,8.26,7.907,14.729,18,14.729h1.472
					c7.591,0,17.362-4.048,22.729-9.415l44.019-44.021c2.619-2.621,4.995-6.362,6.69-10.535c1.702-4.189,2.599-8.524,2.525-12.205
					c0-0.001,0-0.001,0-0.002c-0.087-4.323-1.502-8.475-3.984-11.688C213.417,121.054,209.179,118.866,204.738,118.866
					L204.738,118.866z M132.914,198.006c0-3.701,3.183-9.911,7.071-13.802l50.267-50.267c3.891-3.89,10.408-7.072,14.486-7.072
					c4.079,0,7.503,4.435,7.612,9.854c0.001,0.084,0.002,0.17,0.003,0.255c0.008,5.401-3.05,12.84-6.878,16.669l-44.02,44.021
					c-3.889,3.891-11.57,7.071-17.07,7.071h-1.472C137.414,204.736,132.914,201.708,132.914,198.006L132.914,198.006
					L132.914,198.006z"/>
			</g>
			<path style="fill:#FFFFFF;" d="M153.833,148.994L64.792,45.641c0,0-9.965,0.783-12.869,5.994L153.833,148.994z"/>
			<path style="opacity:0.68;fill:#B2B2B2;" d="M76.37,75.299c0,0,23.18,31.767,6.833,70.987l28.482,20.384
				c0,0,8.978-27.794-9.601-67.115L76.37,75.299z"/>
			<path style="opacity:0.68;fill:#8C8C8C;" d="M102.084,99.555l56.284,56.282l-24.119,24.18l-22.563-13.347
				C111.685,166.67,116.698,134.913,102.084,99.555z"/>
			<path style="opacity:0.68;fill:#FFFFFF;" d="M177.062,138.728c0,0-51.535-78.493-66.6-84.043
				c-15.064-5.55-36.494,1.605-36.494,1.605l-9.175-10.649h36.64c0,0,11.987,0.498,30.569,23.207
				c18.582,22.709,51.244,63.696,51.244,63.696L177.062,138.728z"/>
			<g>
				<path style="fill:#FFFFA6;" d="M206.677,135.761l-64.448,64.448l0,0c-2.354,2.352-6.166,2.352-8.519,0
					c-2.353-2.353-0.746-6.969,1.606-9.322v-0.802l57.221-58.827h0.804c2.352-2.352,10.983-6.368,13.336-4.016
					C209.029,129.595,209.029,133.409,206.677,135.761L206.677,135.761z"/>
			</g>
			<g>
				
					<linearGradient id="XMLID_36_" gradientUnits="userSpaceOnUse" x1="-92.9707" y1="206.5054" x2="-70.5363" y2="228.9398" gradientTransform="matrix(-1 0 0 1 122.2891 0)">
					<stop  offset="0" style="stop-color:#FFFFA6"/>
					<stop  offset="1" style="stop-color:#FFC552"/>
				</linearGradient>
				<path style="fill:url(#XMLID_36_);" d="M215.531,190.392l-23.423,23.424c-3.062,3.062-8.243,9.418-8.243,13.824
					c0,4.443,4.507,7.924,10.261,7.924c5.144,0,12.165-4.247,16.161-8.243l19.778-19.78c4.112-4.112,8.225-10.834,8.128-15.725
					c-0.108-5.421-3.815-9.667-8.438-9.667C225.023,182.149,218.381,187.541,215.531,190.392z"/>
				<g>
					<path style="fill:#D59758;" d="M229.753,178.149c-2.734,0-5.793,1.073-9.349,3.28c-2.666,1.653-5.401,3.833-7.704,6.136
						l-23.422,23.423c-2.271,2.272-4.427,4.927-6.066,7.477c-2.284,3.552-3.349,6.468-3.349,9.177c0,3.843,2.038,7.324,5.592,9.55
						c2.442,1.53,5.521,2.373,8.669,2.373c6.579,0,14.456-4.88,18.99-9.414l19.778-19.78c2.41-2.411,4.66-5.437,6.335-8.522
						c2.025-3.732,3.022-7.134,2.963-10.11c-0.064-3.231-1.136-6.354-3.018-8.79C236.817,179.898,233.385,178.149,229.753,178.149
						L229.753,178.149z M187.864,227.641c0-2.16,3.182-7.107,7.072-10.996l23.423-23.424c3.889-3.891,9.017-7.072,11.395-7.072
						c2.379,0,4.376,2.586,4.439,5.747c0.001,0.037,0.001,0.074,0.001,0.112c-0.012,3.183-3.113,8.86-6.958,12.705l-19.778,19.779
						c-3.89,3.891-9.889,7.071-13.333,7.071C190.682,231.564,187.864,229.799,187.864,227.641L187.864,227.641L187.864,227.641z"/>
				</g>
			</g>
			<g>
				<path style="fill:#FFFFA6;" d="M230.885,191.336l-37.588,37.589l0,0c-1.372,1.371-3.595,1.371-4.968,0
					c-1.371-1.373-0.435-4.065,0.938-5.438v-0.467l33.372-34.309h0.468c1.372-1.372,6.406-3.714,7.778-2.342
					C232.256,187.742,232.256,189.966,230.885,191.336L230.885,191.336z"/>
			</g>
			<g>
				<ellipse style="fill:#69C8FF;stroke:#176EBF;stroke-width:8;" cx="172.314" cy="167.821" rx="19.872" ry="20.013"/>
				<ellipse style="fill:#BFE8FF;" cx="173.394" cy="166.583" rx="11.262" ry="12.066"/>
				<ellipse style="fill:#FFFFFF;" cx="174.443" cy="164.161" rx="5.987" ry="6.848"/>
			</g>
		</g>
	</g>
</g>
</svg>
